<?xml version="1.0" encoding="utf-8"?>
<!-- Generator: Adobe Illustrator 19.1.0, SVG Export Plug-In . SVG Version: 6.00 Build 0)  -->
<svg version="1.1" id="Layer_1" xmlns="http://www.w3.org/2000/svg" xmlns:xlink="http://www.w3.org/1999/xlink" x="0px" y="0px"
	 viewBox="-280 372 50 50" style="enable-background:new -280 372 50 50;" xml:space="preserve">
<style type="text/css">
	.st0{fill:#0BCE88;}
	.st1{fill:#A0A0A0;}
</style>
<path class="st0" d="M-255,386.5c-5.8,0-10.5,4.7-10.5,10.5s4.7,10.5,10.5,10.5s10.5-4.7,10.5-10.5S-249.2,386.5-255,386.5z"/>
<path class="st1" d="M-255,377c-11,0-20,8.9-20,20s9,20,20,20s20-9,20-20S-244,377-255,377z M-255,413c-8.8,0-16-7.2-16-16
	s7.2-16,16-16c8.8,0,16,7.2,16,16S-246.2,413-255,413z"/>
</svg>
