<?xml version="1.0" encoding="utf-8"?>
<!-- Generator: Adobe Illustrator 19.1.0, SVG Export Plug-In . SVG Version: 6.00 Build 0)  -->
<svg version="1.1" id="Layer_1" xmlns="http://www.w3.org/2000/svg" xmlns:xlink="http://www.w3.org/1999/xlink" x="0px" y="0px"
	 viewBox="0 0 50 50" enable-background="new 0 0 50 50" xml:space="preserve">
<path fill="#FBBBFC" d="M19,24.5c-1.4,0-2.5,1.1-2.5,2.5c0,1.4,1.1,2.5,2.5,2.5s2.5-1.1,2.5-2.5C21.5,25.6,20.4,24.5,19,24.5z
	 M31,24.5c-1.4,0-2.5,1.1-2.5,2.5c0,1.4,1.1,2.5,2.5,2.5c1.4,0,2.5-1.1,2.5-2.5C33.5,25.6,32.4,24.5,31,24.5z M25,5
	C13.9,5,5,13.9,5,25s8.9,20,20,20s20-9,20-20S36,5,25,5z M25,41c-8.8,0-16-7.2-16-16c0-0.6,0-1.1,0.1-1.7c4.7-2.1,8.5-5.9,10.4-10.7
	c3.6,5.1,9.6,8.4,16.3,8.4c1.5,0,3.1-0.2,4.5-0.5c0.4,1.4,0.7,3,0.7,4.5C41,33.8,33.8,41,25,41z"/>
</svg>
