<?xml version="1.0" encoding="utf-8"?>
<!-- Generator: Adobe Illustrator 19.1.0, SVG Export Plug-In . SVG Version: 6.00 Build 0)  -->
<svg version="1.1" id="Layer_1" xmlns="http://www.w3.org/2000/svg" xmlns:xlink="http://www.w3.org/1999/xlink" x="0px" y="0px"
	 viewBox="0 0 1490 729.4" enable-background="new 0 0 1490 729.4" xml:space="preserve">
<g opacity="0.14">
	<line fill="none" stroke="#595B5B" stroke-width="4" stroke-miterlimit="10" x1="813.8" y1="433" x2="813.8" y2="443"/>
	<g>
		<rect x="742.8" y="293" fill="#595B5B" width="58" height="150"/>
		<rect x="734.8" y="427" fill="#595B5B" width="12" height="16"/>
		<rect x="743.8" y="292" fill="#595B5B" width="6" height="5"/>
		<line fill="none" stroke="#595B5B" stroke-width="4" stroke-miterlimit="10" x1="744.8" y1="329" x2="735.8" y2="329"/>
		<line fill="none" stroke="#595B5B" stroke-width="4" stroke-miterlimit="10" x1="796.6" y1="331.2" x2="804.2" y2="336.6"/>
		<line fill="none" stroke="#595B5B" stroke-width="4" stroke-miterlimit="10" x1="796.6" y1="337.8" x2="804.2" y2="343.2"/>
		<line fill="none" stroke="#595B5B" stroke-width="4" stroke-miterlimit="10" x1="796.6" y1="343.2" x2="804.2" y2="348.6"/>
		<line fill="none" stroke="#595B5B" stroke-width="4" stroke-miterlimit="10" x1="796.4" y1="349.5" x2="804" y2="354.9"/>
		<line fill="none" stroke="#595B5B" stroke-width="4" stroke-miterlimit="10" x1="797.3" y1="306.3" x2="804.9" y2="311.7"/>
		<line fill="none" stroke="#595B5B" stroke-width="4" stroke-miterlimit="10" x1="797.3" y1="312.9" x2="804.9" y2="318.3"/>
		<line fill="none" stroke="#595B5B" stroke-width="4" stroke-miterlimit="10" x1="797.3" y1="318.3" x2="804.9" y2="323.7"/>
		<line fill="none" stroke="#595B5B" stroke-width="4" stroke-miterlimit="10" x1="797.1" y1="324.6" x2="804.7" y2="330"/>
		<line fill="none" stroke="#595B5B" stroke-width="4" stroke-miterlimit="10" x1="735.8" y1="337" x2="744.8" y2="337"/>
		<line fill="none" stroke="#595B5B" stroke-width="4" stroke-miterlimit="10" x1="735.8" y1="345" x2="744.8" y2="345"/>
		<line fill="none" stroke="#595B5B" stroke-width="4" stroke-miterlimit="10" x1="735.8" y1="353" x2="744.8" y2="353"/>
		<line fill="none" stroke="#595B5B" stroke-width="4" stroke-miterlimit="10" x1="796.8" y1="361" x2="805.8" y2="361"/>
		<line fill="none" stroke="#595B5B" stroke-width="4" stroke-miterlimit="10" x1="796.8" y1="369" x2="805.8" y2="369"/>
		<line fill="none" stroke="#595B5B" stroke-width="4" stroke-miterlimit="10" x1="796.8" y1="377" x2="805.8" y2="377"/>
		<line fill="none" stroke="#595B5B" stroke-width="4" stroke-miterlimit="10" x1="796.8" y1="385" x2="805.8" y2="385"/>
		<line fill="none" stroke="#595B5B" stroke-width="4" stroke-miterlimit="10" x1="795.8" y1="392" x2="805.8" y2="392"/>
		<line fill="none" stroke="#595B5B" stroke-width="4" stroke-miterlimit="10" x1="795.8" y1="399" x2="805.8" y2="399"/>
		<line fill="none" stroke="#595B5B" stroke-width="4" stroke-miterlimit="10" x1="795.8" y1="407" x2="805.8" y2="407"/>
		<line fill="none" stroke="#595B5B" stroke-width="4" stroke-miterlimit="10" x1="795.8" y1="415" x2="805.8" y2="415"/>
		<rect x="732.8" y="293" fill="#595B5B" width="78" height="2"/>
		<polyline fill="none" stroke="#595B5B" stroke-width="4" stroke-miterlimit="10" points="815.8,433 813.4,433 796.8,433 		"/>
		<line fill="none" stroke="#595B5B" stroke-miterlimit="10" x1="788.5" y1="294.9" x2="792.9" y2="291.1"/>
		<line fill="none" stroke="#595B5B" stroke-miterlimit="10" x1="793.2" y1="293.8" x2="791.6" y2="292.1"/>
		<line fill="none" stroke="#595B5B" stroke-miterlimit="10" x1="793.3" y1="294.9" x2="797.7" y2="291.1"/>
		<line fill="none" stroke="#595B5B" stroke-miterlimit="10" x1="798" y1="293.8" x2="796.4" y2="292.1"/>
		<line fill="none" stroke="#595B5B" stroke-miterlimit="10" x1="784.3" y1="294.9" x2="788.7" y2="291.1"/>
		<line fill="none" stroke="#595B5B" stroke-miterlimit="10" x1="789" y1="293.8" x2="787.5" y2="292.1"/>
		<line fill="none" stroke="#595B5B" stroke-miterlimit="10" x1="779.5" y1="294.9" x2="783.9" y2="291.1"/>
		<line fill="none" stroke="#595B5B" stroke-miterlimit="10" x1="784.2" y1="293.8" x2="782.7" y2="292.1"/>
		<line fill="none" stroke="#595B5B" stroke-miterlimit="10" x1="774.7" y1="294.9" x2="779.1" y2="291.1"/>
		<line fill="none" stroke="#595B5B" stroke-miterlimit="10" x1="779.4" y1="293.8" x2="777.9" y2="292.1"/>
		<line fill="none" stroke="#595B5B" stroke-miterlimit="10" x1="769.9" y1="294.9" x2="774.3" y2="291.1"/>
		<line fill="none" stroke="#595B5B" stroke-miterlimit="10" x1="774.6" y1="293.8" x2="773.1" y2="292.1"/>
		<rect x="747.8" y="289" fill="#595B5B" width="10" height="6"/>
		<line fill="none" stroke="#595B5B" stroke-miterlimit="10" x1="805.3" y1="411" x2="805.3" y2="415"/>
		<line fill="none" stroke="#595B5B" stroke-miterlimit="10" x1="805.3" y1="404" x2="805.3" y2="407"/>
		<line fill="none" stroke="#595B5B" stroke-miterlimit="10" x1="805.3" y1="397" x2="805.3" y2="399"/>
		<line fill="none" stroke="#595B5B" stroke-miterlimit="10" x1="805.3" y1="388" x2="805.3" y2="392"/>
		<line fill="none" stroke="#595B5B" stroke-miterlimit="10" x1="805.3" y1="382" x2="805.3" y2="385"/>
		<line fill="none" stroke="#595B5B" stroke-miterlimit="10" x1="805.3" y1="374" x2="805.3" y2="378"/>
		<line fill="none" stroke="#595B5B" stroke-miterlimit="10" x1="805.3" y1="368" x2="805.3" y2="369"/>
		<line fill="none" stroke="#595B5B" stroke-miterlimit="10" x1="805.3" y1="358" x2="805.3" y2="361"/>
		<line fill="none" stroke="#595B5B" stroke-miterlimit="10" x1="736.3" y1="343" x2="736.3" y2="345"/>
		<line fill="none" stroke="#595B5B" stroke-miterlimit="10" x1="736.3" y1="349" x2="736.3" y2="353"/>
		<line fill="none" stroke="#595B5B" stroke-miterlimit="10" x1="736.3" y1="335" x2="736.3" y2="337"/>
		<line fill="none" stroke="#595B5B" stroke-miterlimit="10" x1="736.3" y1="326" x2="736.3" y2="329"/>
		<line fill="none" stroke="#595B5B" stroke-width="4" stroke-miterlimit="10" x1="744.8" y1="360" x2="735.8" y2="360"/>
		<line fill="none" stroke="#595B5B" stroke-width="4" stroke-miterlimit="10" x1="735.8" y1="368" x2="744.8" y2="368"/>
		<line fill="none" stroke="#595B5B" stroke-width="4" stroke-miterlimit="10" x1="735.8" y1="375" x2="744.8" y2="375"/>
		<line fill="none" stroke="#595B5B" stroke-width="4" stroke-miterlimit="10" x1="735.8" y1="384" x2="744.8" y2="384"/>
		<line fill="none" stroke="#595B5B" stroke-miterlimit="10" x1="736.3" y1="373" x2="736.3" y2="375"/>
		<line fill="none" stroke="#595B5B" stroke-miterlimit="10" x1="736.3" y1="381" x2="736.3" y2="384"/>
		<line fill="none" stroke="#595B5B" stroke-miterlimit="10" x1="736.3" y1="365" x2="736.3" y2="368"/>
		<line fill="none" stroke="#595B5B" stroke-miterlimit="10" x1="736.3" y1="357" x2="736.3" y2="360"/>
	</g>
</g>
<g opacity="0.14">
	<rect x="1001.8" y="319" fill="#595B5B" width="67" height="185"/>
	<polygon fill="#595B5B" points="1060.8,321 1008.8,321 1008.8,306.2 1060.8,304.1 	"/>
	<polygon fill="#595B5B" points="1076.5,303.7 1002.7,308.2 1002.6,306.2 1076.3,301.4 	"/>
	<line fill="none" stroke="#595B5B" stroke-miterlimit="10" x1="1001.3" y1="324" x2="1001.3" y2="285"/>
	<g>
		<rect x="1000.3" y="463.5" fill="#595B5B" stroke="#595B5B" stroke-miterlimit="10" width="3" height="12"/>
		<rect x="1000.3" y="481.5" fill="#595B5B" stroke="#595B5B" stroke-miterlimit="10" width="3" height="11"/>
	</g>
	<g>
		<rect x="1000.3" y="431.5" fill="#595B5B" stroke="#595B5B" stroke-miterlimit="10" width="3" height="12"/>
		<rect x="1000.3" y="447.5" fill="#595B5B" stroke="#595B5B" stroke-miterlimit="10" width="3" height="13"/>
	</g>
	<g>
		<rect x="1000.3" y="398.5" fill="#595B5B" stroke="#595B5B" stroke-miterlimit="10" width="3" height="10"/>
		<rect x="1000.3" y="415.5" fill="#595B5B" stroke="#595B5B" stroke-miterlimit="10" width="3" height="10"/>
	</g>
	<g>
		<rect x="1000.3" y="365.5" fill="#595B5B" stroke="#595B5B" stroke-miterlimit="10" width="3" height="11"/>
		<rect x="1000.3" y="382.5" fill="#595B5B" stroke="#595B5B" stroke-miterlimit="10" width="3" height="11"/>
	</g>
	<g>
		<rect x="1000.3" y="331.5" fill="#595B5B" stroke="#595B5B" stroke-miterlimit="10" width="3" height="12"/>
		<rect x="1000.3" y="349.5" fill="#595B5B" stroke="#595B5B" stroke-miterlimit="10" width="3" height="11"/>
	</g>
</g>
<ellipse opacity="0.2" fill="#3A3A3A" cx="694.6" cy="659.8" rx="90.4" ry="18.5"/>
<g>
	<rect x="244.8" y="515.2" fill="#D7D7D7" width="308.5" height="208.2"/>
	<rect x="279.6" y="351.6" fill="#CCCCCC" width="238.7" height="165.4"/>
	<polygon fill="#BFBFBF" points="433.8,723.5 244.8,723.5 433.8,351.6 	"/>
	<rect x="318.4" y="401.5" fill="#B3B3B3" width="38.6" height="77.1"/>
	<rect x="379.7" y="401.5" fill="#B3B3B3" width="38.6" height="77.1"/>
	<rect x="441" y="401.5" fill="#B3B3B3" width="38.6" height="77.1"/>
	<rect x="233.2" y="509.4" fill="#B1B1B1" width="331.6" height="11.6"/>
	<rect x="233.2" y="574.3" fill="#B1B1B1" width="331.6" height="11.6"/>
	<rect x="233.2" y="639.2" fill="#B1B1B1" width="331.6" height="11.6"/>
	<rect x="269.2" y="527.5" fill="#B1B1B1" width="34.7" height="38.6"/>
	<rect x="344.2" y="527.5" fill="#B1B1B1" width="34.7" height="38.6"/>
	<rect x="419.1" y="527.5" fill="#B1B1B1" width="34.7" height="38.6"/>
	<rect x="494.1" y="527.5" fill="#B1B1B1" width="34.7" height="38.6"/>
	<rect x="269.2" y="592.4" fill="#B1B1B1" width="34.7" height="38.6"/>
	<rect x="344.2" y="592.4" fill="#B1B1B1" width="34.7" height="38.6"/>
	<rect x="419.1" y="592.4" fill="#B1B1B1" width="34.7" height="38.6"/>
	<rect x="494.1" y="592.4" fill="#B1B1B1" width="34.7" height="38.6"/>
</g>
<g>
	<rect x="483.4" y="187" fill="#D1D1D1" width="142.2" height="16.4"/>
	<rect x="430.4" y="199.5" fill="#E5E5E5" width="252.6" height="523.5"/>
	<polygon fill="#D8D8D8" points="683,723 430.4,723 683,199.5 	"/>
	<rect x="472.3" y="285.5" fill="#D1D1D1" width="30.8" height="366.3"/>
	<rect x="541.3" y="285.5" fill="#D1D1D1" width="30.8" height="366.3"/>
	<rect x="610.2" y="285.5" fill="#D1D1D1" width="30.8" height="366.3"/>
</g>
<g>
	<rect x="734.8" y="279.9" fill="#CCCCCC" width="223.7" height="442.4"/>
	<polygon fill="#B2B2B2" points="958.4,723.6 734.8,723.6 919.4,437.7 958.4,429 	"/>
	<rect x="760.1" y="593.8" fill="#ADADAD" width="173.5" height="27"/>
	<rect x="760.8" y="541.8" fill="#ADADAD" width="173.5" height="27"/>
	<rect x="760.8" y="489.8" fill="#ADADAD" width="173.5" height="27"/>
	<rect x="760.1" y="437.8" fill="#ADADAD" width="173.5" height="27"/>
	<rect x="760.1" y="385.9" fill="#ADADAD" width="173.5" height="27"/>
	<rect x="760.8" y="333.9" fill="#ADADAD" width="173.5" height="27"/>
	<rect x="734.8" y="272.4" fill="#ADADAD" width="223.7" height="15.4"/>
	<rect x="761.1" y="252.2" fill="#ADADAD" width="172.9" height="23.4"/>
	<polygon fill="#ADADAD" points="917.9,237.7 917.9,255.7 777.2,255.7 777.2,237.7 847.2,215.4 847.6,215.3 847.9,215.4 	"/>
</g>
<g>
	<g>
		<polygon fill="#D8D8D8" points="1187.3,217.1 1187.3,720.4 949.3,720.4 949.3,217.1 985,217.1 985,172.2 1013.8,172.2 
			1013.8,151.4 1122.8,151.4 1122.8,172.2 1151.7,172.2 1151.7,217.1 		"/>
		<polygon fill="#CCCCCC" points="1068.3,720.4 949.3,720.4 949.3,217.1 985,217.1 985,172.2 1013.8,172.2 1013.8,151.4 
			1068.3,151.4 		"/>
		<g>
			<rect x="979.4" y="291.2" fill="#B1B1B1" width="32.1" height="48.1"/>
			<rect x="1028" y="291.2" fill="#B1B1B1" width="32.1" height="48.1"/>
			<rect x="1076.6" y="291.2" fill="#B1B1B1" width="32.1" height="48.1"/>
			<rect x="1076.6" y="355.6" fill="#B1B1B1" width="32.1" height="48.1"/>
			<rect x="1028" y="355.6" fill="#B1B1B1" width="32.1" height="48.1"/>
			<rect x="979.4" y="355.6" fill="#B1B1B1" width="32.1" height="48.1"/>
			<rect x="1076.6" y="419.9" fill="#B1B1B1" width="32.1" height="48.1"/>
			<rect x="1028" y="419.9" fill="#B1B1B1" width="32.1" height="48.1"/>
			<rect x="979.4" y="419.9" fill="#B1B1B1" width="32.1" height="48.1"/>
			<rect x="1076.6" y="484.2" fill="#D64F1A" width="32.1" height="48.1"/>
			<rect x="1028" y="484.2" fill="#B1B1B1" width="32.1" height="48.1"/>
			<rect x="979.4" y="484.2" fill="#B1B1B1" width="32.1" height="48.1"/>
			<rect x="1076.6" y="548.5" fill="#D64F1A" width="32.1" height="48.1"/>
			<rect x="1028" y="548.5" fill="#B1B1B1" width="32.1" height="48.1"/>
			<rect x="979.4" y="548.5" fill="#D64F1A" width="32.1" height="48.1"/>
			<rect x="1125.2" y="291.2" fill="#B1B1B1" width="32.1" height="48.1"/>
			<rect x="1125.2" y="355.6" fill="#B1B1B1" width="32.1" height="48.1"/>
			<rect x="1125.2" y="419.9" fill="#B1B1B1" width="32.1" height="48.1"/>
			<rect x="1125.2" y="484.2" fill="#B1B1B1" width="32.1" height="48.1"/>
			<rect x="1125.2" y="548.5" fill="#D64F1A" width="32.1" height="48.1"/>
		</g>
		<rect x="1036.3" y="646.7" fill="#ED5920" width="64.1" height="73.7"/>
		<g>
			<rect x="1036.3" y="646.7" fill="#ED5920" width="64.1" height="73.7"/>
			<rect x="1036.3" y="646.7" fill="#D64F1A" width="64.1" height="18.4"/>
			<rect x="1036.3" y="665.1" fill="#D64F1A" width="22.4" height="55.3"/>
		</g>
	</g>
	<rect x="949.3" y="216.5" fill="#B1B1B1" width="238" height="14.4"/>
</g>
<g>
	<rect x="1074.9" y="506.9" fill="#DCDCDC" width="223.7" height="215.9"/>
	<rect x="1104.4" y="529.7" fill="#CECDCC" width="165.8" height="35"/>
	<rect x="1104.4" y="594.2" fill="#CECDCC" width="165.8" height="35"/>
	<rect x="1104.4" y="658.6" fill="#CECDCC" width="165.8" height="35"/>
</g>
<g>
	<rect x="999.9" y="453" fill="#E4E4E4" width="223.7" height="269.9"/>
	<rect x="999.9" y="453" fill="#D8D8D8" width="111.8" height="269.9"/>
	<rect x="1028.8" y="499.1" fill="#C6C6C6" width="38.6" height="42.4"/>
	<rect x="1092.4" y="499.1" fill="#C6C6C6" width="38.6" height="42.4"/>
	<rect x="1156.1" y="499.1" fill="#C6C6C6" width="38.6" height="42.4"/>
	<rect x="1028.8" y="559.1" fill="#C6C6C6" width="38.6" height="42.4"/>
	<rect x="1092.4" y="559.1" fill="#C6C6C6" width="38.6" height="42.4"/>
	<rect x="1156.1" y="559.1" fill="#C6C6C6" width="38.6" height="42.4"/>
	<rect x="1028.8" y="619.2" fill="#C6C6C6" width="38.6" height="42.4"/>
	<rect x="1092.4" y="619.2" fill="#C6C6C6" width="38.6" height="42.4"/>
	<rect x="1156.1" y="619.2" fill="#C6C6C6" width="38.6" height="42.4"/>
	<rect x="988.3" y="441.5" fill="#C6C6C6" width="246.8" height="11.6"/>
	<rect x="976.8" y="419.8" fill="#E4E4E4" width="269.9" height="23.1"/>
</g>
<path fill="#A8A8A8" d="M1411.5,729.4H73c-1.8,0-3.3-1.5-3.3-3.3V723c0-1.8,1.5-3.3,3.3-3.3h1338.5c1.8,0,3.3,1.5,3.3,3.3v3.1
	C1414.8,728,1413.3,729.4,1411.5,729.4z"/>
<g>
	<circle fill="#4DA20D" cx="488.5" cy="485.8" r="23.8"/>
	<circle fill="#4DA20D" cx="396.8" cy="619" r="52.5"/>
	<circle fill="#4DA20D" cx="433.1" cy="588.5" r="36.6"/>
	<circle fill="#4DA20D" cx="460.3" cy="633" r="36.6"/>
	<circle fill="#4DA20D" cx="501.3" cy="612.1" r="36.6"/>
	<circle fill="#4DA20D" cx="511.4" cy="633" r="36.6"/>
	<circle fill="#4DA20D" cx="552" cy="629.5" r="36.6"/>
	<circle fill="#4DA20D" cx="772" cy="553" r="31.3"/>
	<circle fill="#4DA20D" cx="406.6" cy="545.5" r="31.3"/>
	<circle fill="#4DA20D" cx="385" cy="675.7" r="31.3"/>
	<circle fill="#4DA20D" cx="467.6" cy="564.1" r="68.7"/>
	<circle fill="#4DA20D" cx="557.8" cy="552.7" r="74.8"/>
	<circle fill="#4DA20D" cx="632.9" cy="517.2" r="38.8"/>
	<circle fill="#4DA20D" cx="704.9" cy="556.1" r="66.9"/>
	<circle fill="#4DA20D" cx="782.2" cy="613.2" r="58.3"/>
	<circle fill="#4DA20D" cx="772" cy="602.2" r="22.8"/>
	<circle fill="#4DA20D" cx="803.5" cy="674.6" r="22.8"/>
	<circle fill="#4DA20D" cx="803.5" cy="692.4" r="22.8"/>
	<circle fill="#4DA20D" cx="671.6" cy="491.5" r="15.7"/>
	<circle fill="#4DA20D" cx="432.2" cy="506.2" r="23.8"/>
	<circle fill="#4DA20D" cx="496.6" cy="506.2" r="23.8"/>
	<circle fill="#4DA20D" cx="612.1" cy="538.2" r="31.9"/>
	<rect x="631.9" y="536.2" fill="#4DA20D" width="36.4" height="26.6"/>
	<ellipse fill="#4DA20D" cx="726.8" cy="571.6" rx="48.4" ry="29.2"/>
	<circle fill="#4DA20D" cx="697.6" cy="595.9" r="39.8"/>
	<circle fill="#4DA20D" cx="741.7" cy="649" r="27.6"/>
	<circle fill="#4DA20D" cx="674.8" cy="624.3" r="62.6"/>
	<circle fill="#4DA20D" cx="644" cy="596.4" r="62.6"/>
	<circle fill="#4DA20D" cx="609" cy="609.5" r="62.6"/>
	<path fill="#4DA20D" d="M815.9,707.8H372.7c-0.8,0-1.5-0.7-1.5-1.5v-47.8c0-0.8,0.7-1.5,1.5-1.5h443.2c0.8,0,1.5,0.7,1.5,1.5v47.8
		C817.4,707.2,816.7,707.8,815.9,707.8z"/>
	<path fill="#A8A8A8" d="M830.6,728.4H344.7c-5.5,0-9.9-4.5-9.9-9.9v-5.6c0-5.5,4.5-9.9,9.9-9.9h485.9c5.5,0,9.9,4.5,9.9,9.9v5.6
		C840.5,724,836,728.4,830.6,728.4z"/>
	<circle fill="#EDEDED" cx="453.6" cy="594.2" r="8.1"/>
	<circle fill="#EDEDED" cx="408.8" cy="668.2" r="12.5"/>
	<circle fill="#EDEDED" cx="657.4" cy="517.6" r="10.5"/>
	<circle fill="#EDEDED" cx="783.3" cy="668.2" r="6.4"/>
	<circle fill="#EDEDED" cx="664.3" cy="635.7" r="8.1"/>
	<circle fill="#3A7209" cx="663.8" cy="575" r="5.8"/>
	<circle fill="#3A7209" cx="726.8" cy="684.9" r="5.8"/>
	<circle fill="#EDEDED" cx="488.5" cy="501.6" r="4.7"/>
	<circle fill="#EDEDED" cx="538.2" cy="610.8" r="11.9"/>
	<circle fill="#3A7209" cx="416.3" cy="541.5" r="5.9"/>
	<circle fill="#3A7209" cx="464.7" cy="538.2" r="5.9"/>
	<circle fill="#F26D90" cx="496.9" cy="575.5" r="5.9"/>
	<circle fill="#F26D90" cx="737.4" cy="533.7" r="5.9"/>
	<circle fill="#EDEDED" cx="433.1" cy="551.8" r="5"/>
	<circle fill="#3A7209" cx="789.8" cy="602.3" r="6.2"/>
	<circle fill="#EDEDED" cx="769.2" cy="575" r="4.9"/>
	<circle fill="#3A7209" cx="729.7" cy="625.1" r="8.8"/>
	<circle fill="#3A7209" cx="712" cy="570.1" r="13.3"/>
	<circle fill="#3A7209" cx="403.6" cy="602.2" r="7.2"/>
	<ellipse fill="#3A7209" cx="483.7" cy="671.4" rx="12.3" ry="12.4"/>
</g>
<g>
	<circle fill="#4DA20D" cx="777.3" cy="486.2" r="23.8"/>
	<circle fill="#4DA20D" cx="685.6" cy="619.4" r="52.5"/>
	<circle fill="#4DA20D" cx="721.9" cy="588.8" r="36.6"/>
	<circle fill="#4DA20D" cx="749.1" cy="633.4" r="36.6"/>
	<circle fill="#4DA20D" cx="790.1" cy="612.5" r="36.6"/>
	<circle fill="#4DA20D" cx="800.2" cy="633.4" r="36.6"/>
	<circle fill="#4DA20D" cx="840.8" cy="629.9" r="36.6"/>
	<circle fill="#4DA20D" cx="1060.8" cy="553.4" r="31.3"/>
	<circle fill="#4DA20D" cx="695.4" cy="545.9" r="31.3"/>
	<circle fill="#4DA20D" cx="673.8" cy="676" r="31.3"/>
	<circle fill="#4DA20D" cx="756.4" cy="564.5" r="68.7"/>
	<circle fill="#4DA20D" cx="846.6" cy="553.1" r="74.8"/>
	<circle fill="#4DA20D" cx="921.7" cy="517.6" r="38.8"/>
	<circle fill="#4DA20D" cx="993.7" cy="556.5" r="66.9"/>
	<circle fill="#4DA20D" cx="1071" cy="613.5" r="58.3"/>
	<circle fill="#4DA20D" cx="1060.8" cy="602.6" r="22.8"/>
	<circle fill="#4DA20D" cx="1092.3" cy="675" r="22.8"/>
	<circle fill="#4DA20D" cx="1092.3" cy="692.8" r="22.8"/>
	<circle fill="#4DA20D" cx="960.4" cy="491.9" r="15.7"/>
	<circle fill="#4DA20D" cx="721" cy="506.5" r="23.8"/>
	<circle fill="#4DA20D" cx="785.4" cy="506.5" r="23.8"/>
	<circle fill="#4DA20D" cx="900.9" cy="538.6" r="31.9"/>
	<rect x="920.7" y="536.6" fill="#4DA20D" width="36.4" height="26.6"/>
	<ellipse fill="#4DA20D" cx="1015.6" cy="572" rx="48.4" ry="29.2"/>
	<circle fill="#4DA20D" cx="986.4" cy="596.2" r="39.8"/>
	<circle fill="#4DA20D" cx="1030.5" cy="649.3" r="27.6"/>
	<circle fill="#4DA20D" cx="963.6" cy="624.7" r="62.6"/>
	<circle fill="#4DA20D" cx="932.8" cy="596.8" r="62.6"/>
	<circle fill="#4DA20D" cx="897.8" cy="609.9" r="62.6"/>
	<path fill="#4DA20D" d="M1104.7,708.2H661.5c-0.8,0-1.5-0.7-1.5-1.5v-47.8c0-0.8,0.7-1.5,1.5-1.5h443.2c0.8,0,1.5,0.7,1.5,1.5v47.8
		C1106.2,707.5,1105.5,708.2,1104.7,708.2z"/>
	<path fill="#A8A8A8" d="M1119.4,728.8H633.5c-5.5,0-9.9-4.5-9.9-9.9v-5.6c0-5.5,4.5-9.9,9.9-9.9h485.9c5.5,0,9.9,4.5,9.9,9.9v5.6
		C1129.3,724.3,1124.8,728.8,1119.4,728.8z"/>
	<circle fill="#EDEDED" cx="742.4" cy="594.6" r="8.1"/>
	<circle fill="#EDEDED" cx="697.6" cy="668.6" r="12.5"/>
	<circle fill="#EDEDED" cx="946.2" cy="518" r="10.5"/>
	<circle fill="#EDEDED" cx="1072.1" cy="668.6" r="6.4"/>
	<circle fill="#EDEDED" cx="953.1" cy="636" r="8.1"/>
	<circle fill="#3A7209" cx="952.6" cy="575.4" r="5.8"/>
	<circle fill="#3A7209" cx="1015.6" cy="685.3" r="5.8"/>
	<circle fill="#EDEDED" cx="777.3" cy="502" r="4.7"/>
	<circle fill="#EDEDED" cx="827" cy="611.1" r="11.9"/>
	<circle fill="#3A7209" cx="705.1" cy="541.8" r="5.9"/>
	<circle fill="#3A7209" cx="753.5" cy="538.6" r="5.9"/>
	<circle fill="#F26D90" cx="785.7" cy="575.8" r="5.9"/>
	<circle fill="#F26D90" cx="1026.2" cy="534.1" r="5.9"/>
	<circle fill="#EDEDED" cx="721.9" cy="552.2" r="5"/>
	<circle fill="#3A7209" cx="1078.6" cy="602.7" r="6.2"/>
	<circle fill="#EDEDED" cx="1058" cy="575.4" r="4.9"/>
	<circle fill="#3A7209" cx="1018.5" cy="625.5" r="8.8"/>
	<circle fill="#3A7209" cx="1000.8" cy="570.5" r="13.3"/>
	<circle fill="#3A7209" cx="692.4" cy="602.6" r="7.2"/>
	<ellipse fill="#3A7209" cx="772.5" cy="671.8" rx="12.3" ry="12.4"/>
</g>
<g>
	<ellipse opacity="0.2" fill="#3A3A3A" cx="758.8" cy="705.5" rx="104.4" ry="21.4"/>
	<g>
		<path fill="#262626" d="M681.6,701.5H673c-1.8,0-3.4-1.5-3.4-3.4v-34.5c0-1.8,1.5-3.4,3.4-3.4h8.6c1.8,0,3.4,1.5,3.4,3.4v34.5
			C685,700,683.5,701.5,681.6,701.5z"/>
		<path fill="#262626" d="M842.9,701.5h-8.6c-1.8,0-3.4-1.5-3.4-3.4v-34.5c0-1.8,1.5-3.4,3.4-3.4h8.6c1.8,0,3.4,1.5,3.4,3.4v34.5
			C846.2,700,844.7,701.5,842.9,701.5z"/>
		<path fill="#233A4F" d="M842.4,675.2H672.7c-3.2,0-5.9-2.6-5.9-5.9V300.8c0-3.2,2.6-5.9,5.9-5.9h169.7c3.2,0,5.9,2.6,5.9,5.9
			v368.5C848.3,672.5,845.7,675.2,842.4,675.2z"/>
		<path fill="none" stroke="#233A4F" stroke-width="10" stroke-miterlimit="10" d="M696.7,675.2v6.7c0,11.7,9.5,21.2,21.2,21.2h79.3
			c11.7,0,21.2-9.5,21.2-21.2v-6.7"/>
		<path fill="none" stroke="#233A4F" stroke-width="15" stroke-miterlimit="10" d="M735.1,706.2h-16.3c-0.7,0-1.2-0.5-1.2-1.2v-2.3
			c0-0.7,0.5-1.2,1.2-1.2h16.3c0.7,0,1.2,0.5,1.2,1.2v2.3C736.3,705.7,735.8,706.2,735.1,706.2z"/>
		<path fill="none" stroke="#233A4F" stroke-width="15" stroke-miterlimit="10" d="M796.2,706.2h-16.3c-0.7,0-1.2-0.5-1.2-1.2v-2.3
			c0-0.7,0.5-1.2,1.2-1.2h16.3c0.7,0,1.2,0.5,1.2,1.2v2.3C797.4,705.7,796.9,706.2,796.2,706.2z"/>
		<path fill="#E8E8E8" stroke="#AAAAAA" stroke-miterlimit="10" d="M832.3,400.3H682.8V59.8c0-5.1,4.1-9.2,9.2-9.2h131.2
			c5.1,0,9.2,4.1,9.2,9.2V400.3z"/>
		<g>
			<rect x="682.8" y="416.5" fill="#BBBCBC" width="75.4" height="98"/>
			<rect x="682.8" y="416.5" fill="#56325F" width="75.4" height="13.7"/>
			<rect x="687.8" y="418.6" fill="none" width="75.4" height="13.7"/>
			<text transform="matrix(1 0 0 1 687.8245 425.9324)" fill="#FFFFFF" font-family="'MyriadPro-Bold'" font-size="10.3301px">Awake</text>
		</g>
		<g>
			<rect x="758.2" y="416.5" fill="#BBBCBC" width="75.4" height="98"/>
			<rect x="758.2" y="416.5" fill="#56325F" width="75.4" height="13.7"/>
			<rect x="763.2" y="418.6" fill="none" width="75.4" height="13.7"/>
			<text transform="matrix(1 0 0 1 763.2131 425.9324)" fill="#FFFFFF" font-family="'MyriadPro-Bold'" font-size="10.3301px">Awake</text>
		</g>
		<line fill="none" stroke="#191919" stroke-width="4" stroke-miterlimit="10" x1="758.2" y1="416.5" x2="758.2" y2="514.5"/>
		<g>
			<rect x="682.2" y="302.4" fill="#1692D3" width="75.4" height="98"/>
			<rect x="682.2" y="349.6" fill="#69B7C9" width="75.4" height="50.8"/>
			<rect x="682.2" y="336.4" fill="#C2E3EE" width="75.4" height="13.1"/>
			<text transform="matrix(1 0 0 1 711.4114 342.9871)" font-family="'MyriadPro-Regular'" font-size="5.5838px">Was Life Created?</text>
			<rect x="757.6" y="302.4" fill="#1692D3" width="75.4" height="98"/>
			<rect x="757.6" y="349.6" fill="#69B7C9" width="75.4" height="50.8"/>
			<rect x="757.6" y="336.4" fill="#C2E3EE" width="75.4" height="13.1"/>
			<text transform="matrix(1 0 0 1 786.8 342.9871)" font-family="'MyriadPro-Regular'" font-size="5.5838px">Was Life Created?</text>
			<line fill="none" stroke="#191919" stroke-width="4" stroke-miterlimit="10" x1="757.6" y1="302.4" x2="757.6" y2="400.3"/>
		</g>
		<circle fill="#4C514F" cx="727.6" cy="197.5" r="8.1"/>
		<circle fill="#4C514F" cx="789.2" cy="197.5" r="8.1"/>
		<path fill="#4C514F" stroke="#4C514F" stroke-width="6" stroke-linecap="round" stroke-miterlimit="10" d="M777,225.5
			c-13-6.8-26-6.8-38.9,0"/>
		<g>
			<rect x="682" y="302.4" fill="#1692D3" width="75.4" height="98"/>
			<rect x="682" y="349.6" fill="#69B7C9" width="75.4" height="50.8"/>
			<rect x="682" y="336.4" fill="#C2E3EE" width="75.4" height="13.1"/>
			<line fill="none" stroke="#191919" stroke-width="4" stroke-miterlimit="10" x1="757.4" y1="302.4" x2="757.4" y2="400.3"/>
			<ellipse fill="#74A8B7" cx="727.1" cy="374.2" rx="15.8" ry="8.8"/>
			<ellipse fill="#74A8B7" cx="701.3" cy="361.9" rx="10.3" ry="4.8"/>
			<ellipse fill="#74A8B7" cx="697.1" cy="387.8" rx="10.3" ry="4.8"/>
			<ellipse fill="#74A8B7" cx="738.3" cy="361.8" rx="5.8" ry="2.7"/>
			<ellipse fill="#69B7C9" cx="728.2" cy="351.3" rx="27" ry="5.2"/>
			<ellipse fill="#C2E3EE" cx="728.2" cy="339.6" rx="27" ry="5.2"/>
			<text transform="matrix(1 0 0 1 711.2727 342.9871)" font-family="'MyriadPro-Regular'" font-size="5.5838px">Was Life Created?</text>
			<ellipse fill="#85B75F" cx="707.4" cy="317.8" rx="11.3" ry="3.3"/>
			<ellipse fill="#85B75F" cx="716.3" cy="326" rx="10.4" ry="0.8"/>
			<line fill="#85B75F" stroke="#85B75F" stroke-width="8" stroke-miterlimit="10" x1="705.9" y1="319.4" x2="698.8" y2="339.6"/>
			<line fill="#85B75F" stroke="#85B75F" stroke-width="4" stroke-miterlimit="10" x1="713.1" y1="326" x2="705.9" y2="346.1"/>
			<rect x="757.4" y="302.4" fill="#1692D3" width="75.4" height="98"/>
			<rect x="757.4" y="349.6" fill="#69B7C9" width="75.4" height="50.8"/>
			<rect x="757.4" y="336.4" fill="#C2E3EE" width="75.4" height="13.1"/>
			<ellipse fill="#74A8B7" cx="802.5" cy="374.2" rx="15.8" ry="8.8"/>
			<ellipse fill="#74A8B7" cx="776.7" cy="361.9" rx="10.3" ry="4.8"/>
			<ellipse fill="#74A8B7" cx="772.5" cy="387.8" rx="10.3" ry="4.8"/>
			<ellipse fill="#69B7C9" cx="803.6" cy="351.3" rx="27" ry="5.2"/>
			<ellipse fill="#C2E3EE" cx="803.6" cy="339.6" rx="27" ry="5.2"/>
			<text transform="matrix(1 0 0 1 786.6614 342.9871)" font-family="'MyriadPro-Regular'" font-size="5.5838px">Was Life Created?</text>
			<ellipse fill="#85B75F" cx="782.8" cy="317.8" rx="11.3" ry="3.3"/>
			<ellipse fill="#85B75F" cx="791.7" cy="326" rx="10.4" ry="0.8"/>
			<line fill="#85B75F" stroke="#85B75F" stroke-width="8" stroke-miterlimit="10" x1="781.3" y1="319.4" x2="774.2" y2="339.6"/>
			<line fill="#85B75F" stroke="#85B75F" stroke-width="4" stroke-miterlimit="10" x1="788.5" y1="326" x2="781.3" y2="346.1"/>
		</g>
		<rect x="675.5" y="357" opacity="0.61" fill="#5796C1" width="165.8" height="46.1"/>
		<rect x="675.5" y="470.1" opacity="0.61" fill="#5796C1" width="165.8" height="46.1"/>
		<g>
			<rect x="679.6" y="555.8" fill="#E0CC83" width="50.8" height="73.7"/>
			<rect x="683.5" y="560.1" fill="none" stroke="#141516" stroke-width="2" stroke-miterlimit="10" width="43.1" height="65.1"/>
			<g>
				<rect x="732.8" y="555.8" fill="#E0CC83" width="50.8" height="73.7"/>
				<rect x="736.1" y="559.4" fill="none" stroke="#141516" stroke-width="2" stroke-miterlimit="10" width="43.1" height="65.1"/>
			</g>
			<g>
				<rect x="785.9" y="555.8" fill="#E0CC83" width="50.8" height="73.7"/>
				<rect x="789.2" y="559.4" fill="none" stroke="#141516" stroke-width="2" stroke-miterlimit="10" width="43.1" height="65.1"/>
			</g>
			<text transform="matrix(1 0 0 1 687.9495 578.4656)"><tspan x="0" y="0" font-family="'MyriadPro-Regular'" font-size="5.7767px">what does the</tspan><tspan x="4" y="6.9" font-family="'MyriadPro-Regular'" font-size="5.7767px">Bible really</tspan><tspan x="9.9" y="13.9" font-family="'MyriadPro-Regular'" font-size="5.7767px">Teach</tspan></text>
			<text transform="matrix(1 0 0 1 740.5295 578.4656)"><tspan x="0" y="0" font-family="'MyriadPro-Regular'" font-size="5.7767px">what does the</tspan><tspan x="4" y="6.9" font-family="'MyriadPro-Regular'" font-size="5.7767px">Bible really</tspan><tspan x="9.9" y="13.9" font-family="'MyriadPro-Regular'" font-size="5.7767px">Teach</tspan></text>
			<text transform="matrix(1 0 0 1 793.6741 579.0437)"><tspan x="0" y="0" font-family="'MyriadPro-Regular'" font-size="5.7767px">what does the</tspan><tspan x="4" y="6.9" font-family="'MyriadPro-Regular'" font-size="5.7767px">Bible really</tspan><tspan x="9.9" y="13.9" font-family="'MyriadPro-Regular'" font-size="5.7767px">Teach</tspan></text>
		</g>
		<rect x="675.5" y="589.2" opacity="0.61" fill="#5796C1" width="165.8" height="46.1"/>
	</g>
</g>
</svg>
